<svg width="48" height="48" viewBox="0 0 48 48" fill="none" xmlns="http://www.w3.org/2000/svg">
<mask id="mask0_9_25" style="mask-type:alpha" maskUnits="userSpaceOnUse" x="0" y="0" width="48" height="48">
<rect width="48" height="48" fill="#D9D9D9"/>
</mask>
<g mask="url(#mask0_9_25)">
<path d="M29 23.5C28.3 23.5 27.7087 23.258 27.226 22.774C26.742 22.2913 26.5 21.7 26.5 21C26.5 20.3 26.742 19.7087 27.226 19.226C27.7087 18.742 28.3 18.5 29 18.5C29.7 18.5 30.2913 18.742 30.774 19.226C31.258 19.7087 31.5 20.3 31.5 21C31.5 21.7 31.258 22.2913 30.774 22.774C30.2913 23.258 29.7 23.5 29 23.5ZM19 23.5C18.3 23.5 17.7087 23.258 17.226 22.774C16.742 22.2913 16.5 21.7 16.5 21C16.5 20.3 16.742 19.7087 17.226 19.226C17.7087 18.742 18.3 18.5 19 18.5C19.7 18.5 20.2913 18.742 20.774 19.226C21.258 19.7087 21.5 20.3 21.5 21C21.5 21.7 21.258 22.2913 20.774 22.774C20.2913 23.258 19.7 23.5 19 23.5ZM24 34C22 34 20.192 33.45 18.576 32.35C16.9587 31.25 15.7667 29.8 15 28H33C32.2333 29.8 31.042 31.25 29.426 32.35C27.8087 33.45 26 34 24 34ZM24 42C21.5 42 19.1587 41.5253 16.976 40.576C14.792 39.6253 12.892 38.3413 11.276 36.724C9.65867 35.108 8.37467 33.208 7.424 31.024C6.47467 28.8413 6 26.5 6 24C6 21.5 6.47467 19.158 7.424 16.974C8.37467 14.7913 9.65867 12.8913 11.276 11.274C12.892 9.658 14.792 8.37467 16.976 7.424C19.1587 6.47467 21.5 6 24 6C26.5 6 28.842 6.47467 31.026 7.424C33.2087 8.37467 35.1087 9.658 36.726 11.274C38.342 12.8913 39.6253 14.7913 40.576 16.974C41.5253 19.158 42 21.5 42 24C42 26.5 41.5253 28.8413 40.576 31.024C39.6253 33.208 38.342 35.108 36.726 36.724C35.1087 38.3413 33.2087 39.6253 31.026 40.576C28.842 41.5253 26.5 42 24 42ZM24 38C27.8667 38 31.1667 36.6333 33.9 33.9C36.6333 31.1667 38 27.8667 38 24C38 20.1333 36.6333 16.8333 33.9 14.1C31.1667 11.3667 27.8667 10 24 10H23.4C23.2 10 23 10.0333 22.8 10.1C22.6 10.3 22.4667 10.5167 22.4 10.75C22.3333 10.9833 22.3 11.2333 22.3 11.5C22.3 12.2 22.5413 12.7913 23.024 13.274C23.508 13.758 24.1 14 24.8 14C25.1 14 25.3747 13.95 25.624 13.85C25.8747 13.75 26.1333 13.7 26.4 13.7C26.8 13.7 27.1333 13.85 27.4 14.15C27.6667 14.45 27.8 14.8 27.8 15.2C27.8 15.9667 27.442 16.458 26.726 16.674C26.0087 16.8913 25.3667 17 24.8 17C23.3 17 22.0087 16.4587 20.926 15.376C19.842 14.292 19.3 13 19.3 11.5V11.2C19.3 11.1 19.3167 10.9667 19.35 10.8C16.5833 11.8 14.3333 13.4833 12.6 15.85C10.8667 18.2167 10 20.9333 10 24C10 27.8667 11.3667 31.1667 14.1 33.9C16.8333 36.6333 20.1333 38 24 38Z" fill="#240506"/>
</g>
</svg>
