<svg width="48" height="48" viewBox="0 0 48 48" fill="none" xmlns="http://www.w3.org/2000/svg">
<mask id="mask0_9_31" style="mask-type:alpha" maskUnits="userSpaceOnUse" x="0" y="0" width="48" height="48">
<rect width="48" height="48" fill="#D9D9D9"/>
</mask>
<g mask="url(#mask0_9_31)">
<path d="M2 40V32C2 30.8667 2.392 29.9167 3.176 29.15C3.95867 28.3833 4.9 28 6 28H12.55C13.2167 28 13.85 28.1667 14.45 28.5C15.05 28.8333 15.5333 29.2833 15.9 29.85C16.8667 31.15 18.0587 32.1667 19.476 32.9C20.892 33.6333 22.4 34 24 34C25.6333 34 27.1587 33.6333 28.576 32.9C29.992 32.1667 31.1667 31.15 32.1 29.85C32.5333 29.2833 33.0413 28.8333 33.624 28.5C34.208 28.1667 34.8167 28 35.45 28H42C43.1333 28 44.0833 28.3833 44.85 29.15C45.6167 29.9167 46 30.8667 46 32V40H32V35.45C30.8333 36.2833 29.5753 36.9167 28.226 37.35C26.8753 37.7833 25.4667 38 24 38C22.5667 38 21.1667 37.7753 19.8 37.326C18.4333 36.8753 17.1667 36.2333 16 35.4V40H2ZM24 32C22.7333 32 21.5333 31.708 20.4 31.124C19.2667 30.5413 18.3167 29.7333 17.55 28.7C16.9833 27.8667 16.2753 27.2087 15.426 26.726C14.5753 26.242 13.65 26 12.65 26C13.3833 24.7667 14.9333 23.7913 17.3 23.074C19.6667 22.358 21.9 22 24 22C26.1 22 28.3333 22.358 30.7 23.074C33.0667 23.7913 34.6167 24.7667 35.35 26C34.3833 26 33.4667 26.242 32.6 26.726C31.7333 27.2087 31.0167 27.8667 30.45 28.7C29.7167 29.7667 28.7833 30.5833 27.65 31.15C26.5167 31.7167 25.3 32 24 32ZM8 26C6.33333 26 4.91667 25.4167 3.75 24.25C2.58333 23.0833 2 21.6667 2 20C2 18.3 2.58333 16.8747 3.75 15.724C4.91667 14.5747 6.33333 14 8 14C9.7 14 11.1253 14.5747 12.276 15.724C13.4253 16.8747 14 18.3 14 20C14 21.6667 13.4253 23.0833 12.276 24.25C11.1253 25.4167 9.7 26 8 26ZM40 26C38.3333 26 36.9167 25.4167 35.75 24.25C34.5833 23.0833 34 21.6667 34 20C34 18.3 34.5833 16.8747 35.75 15.724C36.9167 14.5747 38.3333 14 40 14C41.7 14 43.1253 14.5747 44.276 15.724C45.4253 16.8747 46 18.3 46 20C46 21.6667 45.4253 23.0833 44.276 24.25C43.1253 25.4167 41.7 26 40 26ZM24 20C22.3333 20 20.9167 19.4167 19.75 18.25C18.5833 17.0833 18 15.6667 18 14C18 12.3 18.5833 10.8747 19.75 9.724C20.9167 8.57467 22.3333 8 24 8C25.7 8 27.1247 8.57467 28.274 9.724C29.4247 10.8747 30 12.3 30 14C30 15.6667 29.4247 17.0833 28.274 18.25C27.1247 19.4167 25.7 20 24 20Z" fill="#240506"/>
</g>
</svg>
