<svg width="48" height="48" viewBox="0 0 48 48" fill="none" xmlns="http://www.w3.org/2000/svg">
<mask id="mask0_9_19" style="mask-type:alpha" maskUnits="userSpaceOnUse" x="0" y="0" width="48" height="48">
<rect width="48" height="48" fill="#D9D9D9"/>
</mask>
<g mask="url(#mask0_9_19)">
<path d="M10 20L8.1 15.9L4 14L8.1 12.1L10 8L11.9 12.1L16 14L11.9 15.9L10 20ZM36 14L34.75 11.25L32 10L34.75 8.75L36 6L37.25 8.75L40 10L37.25 11.25L36 14ZM40 22L38.75 19.25L36 18L38.75 16.75L40 14L41.25 16.75L44 18L41.25 19.25L40 22ZM24 30C22.3333 30 20.9167 29.4167 19.75 28.25C18.5833 27.0833 18 25.6667 18 24V12C18 10.3333 18.5833 8.91667 19.75 7.75C20.9167 6.58333 22.3333 6 24 6C25.6667 6 27.0833 6.58333 28.25 7.75C29.4167 8.91667 30 10.3333 30 12V24C30 25.6667 29.4167 27.0833 28.25 28.25C27.0833 29.4167 25.6667 30 24 30ZM22 44V37.85C18.5333 37.3833 15.6667 35.8333 13.4 33.2C11.1333 30.5667 10 27.5 10 24H14C14 26.7667 14.9753 29.1247 16.926 31.074C18.8753 33.0247 21.2333 34 24 34C26.7667 34 29.1253 33.0247 31.076 31.074C33.0253 29.1247 34 26.7667 34 24H38C38 27.5 36.8667 30.5667 34.6 33.2C32.3333 35.8333 29.4667 37.3833 26 37.85V44H22ZM24 26C24.5667 26 25.042 25.808 25.426 25.424C25.8087 25.0413 26 24.5667 26 24V12C26 11.4333 25.8087 10.958 25.426 10.574C25.042 10.1913 24.5667 10 24 10C23.4333 10 22.9587 10.1913 22.576 10.574C22.192 10.958 22 11.4333 22 12V24C22 24.5667 22.192 25.0413 22.576 25.424C22.9587 25.808 23.4333 26 24 26Z" fill="#240506"/>
</g>
</svg>
